<?xml version="1.0" standalone="no"?>
<!DOCTYPE svg PUBLIC "-//W3C//DTD SVG 20010904//EN"
 "http://www.w3.org/TR/2001/REC-SVG-20010904/DTD/svg10.dtd">
<svg version="1.0" xmlns="http://www.w3.org/2000/svg"
 width="1432.000000pt" height="237.000000pt" viewBox="0 0 1432.000000 237.000000"
 preserveAspectRatio="xMidYMid meet">

<g transform="translate(0.000000,237.000000) scale(0.100000,-0.100000)"
fill="#ffffff" stroke="none">
<path d="M206 2349 c-12 -36 -196 -734 -196 -744 0 -6 15 -16 34 -23 102 -37
176 -182 147 -288 -6 -22 -16 -86 -21 -141 -17 -166 8 -323 82 -503 105 -258
266 -431 501 -539 335 -154 646 -147 979 22 207 105 328 227 430 432 84 167
118 314 118 504 -1 177 -36 313 -130 501 -111 222 -270 367 -510 465 -262 106
-508 112 -769 19 l-102 -36 -92 89 c-100 95 -196 155 -331 209 -108 43 -135
50 -140 33z m1142 -1059 c140 -70 181 -243 91 -384 -40 -64 -126 -106 -217
-106 -109 0 -183 45 -231 141 -67 134 -20 283 110 348 86 43 161 43 247 1z"/>
<path d="M3772 2347 c-45 -14 -118 -80 -145 -131 -17 -32 -22 -58 -22 -116 0
-89 21 -136 85 -194 57 -51 97 -66 179 -66 86 0 160 35 208 98 101 133 51 334
-100 403 -47 21 -149 24 -205 6z"/>
<path d="M5766 2349 c-13 -38 -196 -734 -196 -745 0 -6 12 -15 26 -18 34 -9
111 -82 135 -128 26 -50 34 -114 20 -164 -6 -22 -16 -86 -21 -141 -17 -166 8
-323 82 -503 105 -258 266 -431 501 -539 335 -154 646 -147 979 22 207 105
328 227 430 432 45 88 90 213 80 219 -7 4 -749 206 -758 206 -2 0 -10 -15 -18
-33 -39 -94 -136 -157 -241 -157 -79 0 -127 18 -178 68 -80 77 -96 141 -72
277 26 141 17 348 -19 470 -63 210 -145 355 -276 485 -103 103 -189 158 -334
216 -108 43 -135 50 -140 33z"/>
<path d="M8866 2349 c-12 -36 -196 -734 -196 -744 0 -6 15 -16 34 -23 102 -37
176 -182 147 -288 -6 -22 -16 -86 -21 -141 -17 -166 8 -323 82 -503 105 -258
266 -431 501 -539 335 -154 646 -147 979 22 207 105 328 227 430 432 84 167
118 314 118 504 -1 177 -36 313 -130 501 -111 222 -270 367 -510 465 -262 106
-508 112 -769 19 l-102 -36 -92 89 c-100 95 -196 155 -331 209 -108 43 -135
50 -140 33z m1142 -1059 c140 -70 181 -243 91 -384 -40 -64 -126 -106 -217
-106 -109 0 -183 45 -231 141 -67 134 -20 283 110 348 86 43 161 43 247 1z"/>
<path d="M13100 2114 c-250 -46 -442 -146 -606 -315 -170 -177 -273 -399 -293
-636 -28 -320 80 -620 302 -844 279 -281 674 -383 1054 -273 277 80 537 306
662 574 123 265 126 606 7 874 -104 234 -323 447 -566 549 -127 54 -203 68
-375 72 -88 2 -171 1 -185 -1z m282 -821 c93 -51 145 -147 135 -252 -12 -139
-124 -241 -262 -241 -138 0 -250 102 -262 241 -12 128 74 248 200 280 52 13
136 1 189 -28z"/>
<path d="M3415 1584 c110 -58 174 -186 146 -290 -22 -84 -33 -243 -21 -338 35
-291 187 -575 392 -733 116 -89 346 -189 481 -208 l47 -7 0 411 0 411 -41 37
c-81 73 -99 143 -73 270 22 106 23 319 2 403 l-13 55 -475 2 c-438 2 -473 1
-445 -13z"/>
</g>
</svg>
