<?xml version="1.0" encoding="utf-8"?>
<svg fill="#ffffff" viewBox="0 0 720 720" xmlns="http://www.w3.org/2000/svg"><g xmlns="http://www.w3.org/2000/svg" transform="translate(0.000000,720.000000) scale(0.100000,-0.100000)">
            <path d="M1071 6793 c-6 -21 -118 -442 -251 -936 -132 -494 -240 -902 -240 -905 1 -4 47 -29 103 -56 88 -42 113 -60 182 -130 166 -168 219 -358 167 -594 -37 -170 -52 -296 -59 -493 -13 -418 73 -794 283 -1237 217 -457 446 -732 812 -974 302 -199 700 -360 1044 -423 536 -97 1024 -35 1554 199 508 225 807 464 1070 857 179 268 350 677 408 974 125 649 46 1172 -275 1806 -103 203 -194 347 -300 474 -376 451 -1030 782 -1695 860 -427 50 -838 -10 -1270 -184 l-148 -60 -31 37 c-289 352 -663 598 -1184 776 -73 25 -139 46 -147 46 -7 0 -18 -17 -23 -37z m2755 -2572 c103 -40 212 -116 263 -184 56 -74 118 -209 137 -297 33 -156 -10 -360 -108 -507 -59 -88 -107 -130 -207 -182 -125 -65 -208 -86 -336 -85 -96 1 -121 5 -198 31 -181 63 -287 155 -367 317 -90 180 -101 326 -39 510 64 192 166 304 347 380 116 49 157 56 297 52 118 -3 138 -6 211 -35z"/>
        </g></svg>